# xmcd
#
# Track frame offsets: 
#        150
#        13152
#        31406
#        46306
#        72009
#        92479
#        113180
#        130384
#        147447
#        162915
#        181655
#        197182
#
# Disc length: 2814 seconds
#
# Revision: 0
# Processed by: cddbd v1.5.2PL0 Copyright (c) Steve Scherf et al.
# Submitted via: ExactAudioCopy v1.3
#
DISCID=a20afc0c
DTITLE=Big Jay McNeely and Dana Gillespie - Cherry Pie
DYEAR=1997
DGENRE=Blues
TTITLE0=A Man Needs a Woman
TTITLE1=Cherry Pie
TTITLE2=Who Blew The Blues Away
TTITLE3=Get Up and Boogie
TTITLE4=Guess Who?
TTITLE5=This Man is Wanted
TTITLE6=You Make Me Feel So Good
TTITLE7=Watts Up
TTITLE8=You'r Always There
TTITLE9=Livin' Just For You
TTITLE10=Jay's Groove
TTITLE11=Give Me Your Best Shot
EXTD=
EXTT0=
EXTT1=
EXTT2=
EXTT3=
EXTT4=
EXTT5=
EXTT6=
EXTT7=
EXTT8=
EXTT9=
EXTT10=
EXTT11=
PLAYORDER=
